# xmcd CD database file
#
# Track frame offsets:
#	150
#	9207
#	19896
#	35215
#	48922
#	70028
#	83130
#	98591
#	108193
#	120069
#	135076
#	144361
#	156604
#	164150
#
# Disc length: 2360 seconds
#
# Revision: 2
# Processed by: cddbd v1.4b41PL1 Copyright (c) Steve Scherf et al.
# Submitted via: Feurio! 1.50.2ß - http://www.feurio.com
#
DISCID=a709360e
DTITLE=Klansmen - Rock´n´Roll Patriots
DYEAR=1900
DGENRE=
TTITLE0=Klansmen Song
TTITLE1=66
TTITLE2=Get It Right
TTITLE3=Better Days
TTITLE4=Freedom (What Freedom)
TTITLE5=Rock´n´Roll Patriots
TTITLE6=Coming Up To Midnight
TTITLE7=Drinking On Your Own
TTITLE8=Motorway Daze
TTITLE9=The Devils Right Hand
TTITLE10=White Power
TTITLE11=Tomorrow Belongs To Me
TTITLE12=Southern Belle
TTITLE13=Johnny Joined The Klan
EXTD=
EXTT0=
EXTT1=
EXTT2=
EXTT3=
EXTT4=
EXTT5=
EXTT6=
EXTT7=
EXTT8=
EXTT9=
EXTT10=
EXTT11=
EXTT12=
EXTT13=
PLAYORDER=
